<?xml version="1.0" standalone="no"?><!-- Generator: Gravit.io --><svg xmlns="http://www.w3.org/2000/svg" xmlns:xlink="http://www.w3.org/1999/xlink" style="isolation:isolate" viewBox="0 0 512 512" width="512" height="512"><defs><clipPath id="_clipPath_dDnTuJkDI7RccUrxjvsYokZJwoBkPXg1"><rect width="512" height="512"/></clipPath></defs><g clip-path="url(#_clipPath_dDnTuJkDI7RccUrxjvsYokZJwoBkPXg1)"><clipPath id="_clipPath_UZQgSZOG9xaNXrAiaAG4HRuGU9w7WC57"><rect x="0" y="0" width="512" height="512" transform="matrix(1,0,0,1,0,0)" fill="rgb(255,255,255)"/></clipPath><g clip-path="url(#_clipPath_UZQgSZOG9xaNXrAiaAG4HRuGU9w7WC57)"><g id="Group"><g id="Старт"><path d=" M -0.097 254.903 C -0.097 114.164 114.164 -0.097 254.903 -0.097 C 395.641 -0.097 509.903 114.164 509.903 254.903 C 509.903 395.641 395.641 509.903 254.903 509.903 C 114.164 509.903 -0.097 395.641 -0.097 254.903 Z " fill="rgb(255,255,255)"/><g id="Layer1000"><path d=" M 47.159 271.755 L 56.09 270.974 C 56.508 274.489 57.495 277.369 59.05 279.63 C 60.606 281.876 63.014 283.698 66.275 285.097 C 69.537 286.481 73.216 287.18 77.297 287.18 C 80.926 287.18 84.121 286.659 86.897 285.602 C 89.673 284.544 91.73 283.096 93.085 281.258 C 94.44 279.419 95.126 277.417 95.126 275.27 C 95.126 273.089 94.473 271.185 93.169 269.542 C 91.864 267.915 89.707 266.548 86.696 265.425 C 84.773 264.71 80.508 263.571 73.902 262.025 C 67.296 260.479 62.68 259.031 60.037 257.664 C 56.608 255.907 54.067 253.727 52.394 251.14 C 50.705 248.553 49.869 245.64 49.869 242.434 C 49.869 238.887 50.906 235.584 52.963 232.525 C 55.02 229.45 58.013 227.123 61.977 225.529 C 65.924 223.934 70.323 223.137 75.156 223.137 C 80.475 223.137 85.175 223.967 89.239 225.642 C 93.303 227.302 96.43 229.759 98.621 233.013 C 100.812 236.252 101.983 239.929 102.15 244.029 L 93.018 244.712 C 92.533 240.303 90.877 236.967 88.051 234.722 C 85.225 232.46 81.043 231.337 75.524 231.337 C 69.771 231.337 65.573 232.363 62.947 234.413 C 60.321 236.463 59 238.936 59 241.832 C 59 244.338 59.937 246.405 61.793 248.032 C 63.633 249.643 68.399 251.318 76.126 253.011 C 83.853 254.719 89.155 256.2 92.031 257.469 C 96.196 259.34 99.29 261.7 101.28 264.58 C 103.27 267.443 104.257 270.746 104.257 274.489 C 104.257 278.215 103.17 281.697 100.979 284.984 C 98.788 288.27 95.661 290.825 91.563 292.647 C 87.466 294.47 82.867 295.381 77.732 295.381 C 71.243 295.381 65.807 294.453 61.425 292.615 C 57.027 290.776 53.598 288.01 51.106 284.3 C 48.598 280.607 47.293 276.425 47.159 271.755 L 47.159 271.755 L 47.159 271.755 Z  M 135.265 286.546 L 136.469 294.128 C 133.994 294.633 131.769 294.893 129.83 294.893 C 126.635 294.893 124.16 294.405 122.387 293.412 C 120.631 292.419 119.393 291.134 118.674 289.523 C 117.955 287.912 117.604 284.528 117.604 279.37 L 117.604 250.18 L 111.081 250.18 L 111.081 243.541 L 117.604 243.541 L 117.604 231.012 L 126.434 225.854 L 126.434 243.541 L 135.265 243.541 L 135.265 250.18 L 126.434 250.18 L 126.434 279.858 C 126.434 282.315 126.585 283.894 126.902 284.593 C 127.204 285.293 127.705 285.846 128.408 286.269 C 129.11 286.676 130.114 286.887 131.418 286.887 C 132.388 286.887 133.676 286.774 135.265 286.546 L 135.265 286.546 L 135.265 286.546 Z  M 177.997 287.864 C 174.719 290.581 171.558 292.485 168.53 293.607 C 165.503 294.73 162.259 295.283 158.78 295.283 C 153.06 295.283 148.661 293.933 145.584 291.216 C 142.507 288.514 140.968 285.049 140.968 280.834 C 140.968 278.361 141.554 276.1 142.708 274.049 C 143.878 271.999 145.4 270.372 147.274 269.135 C 149.163 267.899 151.271 266.955 153.629 266.321 C 155.368 265.881 157.994 265.458 161.49 265.035 C 168.614 264.222 173.883 263.229 177.244 262.09 C 177.278 260.919 177.294 260.17 177.294 259.861 C 177.294 256.379 176.458 253.922 174.786 252.49 C 172.528 250.554 169.166 249.594 164.717 249.594 C 160.553 249.594 157.476 250.31 155.502 251.725 C 153.512 253.141 152.057 255.647 151.103 259.259 L 142.473 258.087 C 143.26 254.491 144.547 251.579 146.353 249.366 C 148.16 247.153 150.769 245.461 154.181 244.257 C 157.576 243.069 161.54 242.467 166.022 242.467 C 170.471 242.467 174.1 242.971 176.893 243.996 C 179.669 245.021 181.726 246.291 183.031 247.836 C 184.335 249.382 185.255 251.335 185.79 253.694 C 186.075 255.159 186.225 257.794 186.225 261.586 L 186.225 272.975 C 186.225 280.932 186.409 285.96 186.777 288.092 C 187.129 290.223 187.865 292.257 188.935 294.209 L 179.703 294.209 C 178.816 292.403 178.248 290.288 177.997 287.864 L 177.997 287.864 L 177.997 287.864 Z  M 177.294 268.826 C 174.083 270.095 169.267 271.169 162.844 272.048 C 159.198 272.552 156.623 273.122 155.117 273.756 C 153.612 274.391 152.458 275.319 151.639 276.523 C 150.819 277.743 150.401 279.093 150.401 280.59 C 150.401 282.852 151.288 284.756 153.077 286.269 C 154.867 287.782 157.476 288.547 160.904 288.547 C 164.299 288.547 167.326 287.831 169.986 286.383 C 172.628 284.951 174.585 282.982 175.823 280.493 C 176.776 278.556 177.244 275.709 177.244 271.95 L 177.294 268.826 L 177.294 268.826 Z  M 199.689 294.209 L 199.689 243.541 L 207.616 243.541 L 207.616 251.302 C 209.64 247.706 211.513 245.331 213.236 244.192 C 214.958 243.037 216.848 242.467 218.905 242.467 C 221.882 242.467 224.91 243.378 227.987 245.184 L 224.843 253.108 C 222.702 251.937 220.561 251.351 218.42 251.351 C 216.497 251.351 214.774 251.921 213.252 253.043 C 211.73 254.166 210.643 255.728 209.991 257.729 C 209.004 260.772 208.519 264.108 208.519 267.736 L 208.519 294.209 L 199.689 294.209 L 199.689 294.209 Z " fill-rule="evenodd" fill="rgb(227,0,22)"/><path d=" M 252.572 294.209 L 252.572 232.509 L 228.89 232.509 L 228.89 224.308 L 285.788 224.308 L 285.788 232.509 L 262.105 232.509 L 262.105 294.209 L 252.572 294.209 L 252.572 294.209 Z " fill-rule="evenodd" fill="rgb(0,82,158)"/></g><path d=" M 118.615 91.67 C 129.824 81.893 140.363 74.711 153.309 67.938 C 166.255 61.164 181.608 54.8 197.344 50.301 C 213.08 45.802 229.2 43.169 246.381 42.563 C 263.562 41.958 281.804 43.38 299.209 46.911 C 316.614 50.442 333.182 56.081 349.46 64.192 C 365.737 72.303 381.723 82.885 393.847 92.432 C 405.972 101.979 414.235 110.491 420.952 118.312 C 427.668 126.133 432.838 133.263 438.146 142.001 C 443.455 150.739 448.903 161.085 454.168 175.511 C 459.433 189.937 464.515 208.443 467.304 224.836 C 470.094 241.229 470.589 255.509 469.242 271.188 C 467.896 286.866 464.707 303.943 461.456 316.745 C 458.205 329.547 454.891 338.076 451.075 346.313 C 447.259 354.55 442.94 362.496 438.039 370.262 C 433.138 378.028 427.654 385.614 421.591 392.917 C 415.528 400.221 408.886 407.242 400.669 414.554 C 392.454 421.865 382.664 429.468 373.314 435.723 C 363.963 441.978 355.052 446.885 345.116 451.342 C 335.18 455.799 324.221 459.806 316.486 462.351 C 308.752 464.897 304.245 465.982 300.075 466.866 C 297.164 467.483 294.418 468.002 293.407 468.275 C 292.971 468.393 292.858 468.465 293.197 468.478 C 294.318 468.524 300.391 467.933 307.144 466.926 C 313.897 465.921 321.329 464.5 325.045 463.79 L 328.761 463.079 L 331.274 462.707 C 333.787 462.334 338.814 461.589 349.832 456.716 C 360.851 451.843 377.863 442.842 391.072 433.765 C 404.282 424.688 413.69 415.536 426.93 400.959 C 440.17 386.383 457.243 366.383 468.742 341.976 C 480.24 317.57 486.163 288.756 488.253 261.807 C 490.344 234.857 488.602 209.773 482.069 182.527 C 475.536 155.281 464.213 125.874 450.798 104.01 C 437.384 82.146 421.879 67.823 406.744 55.543 C 391.609 43.262 376.845 33.023 362.08 22.784 C 352.86 19.212 343.64 15.639 333.478 12.472 C 323.317 9.305 312.215 6.544 296.66 4.571 C 281.104 2.598 261.095 1.412 242.408 2.221 C 223.721 3.03 206.356 5.832 190.361 9.951 C 174.367 14.07 159.744 19.505 147.58 25.892 C 135.416 32.278 125.711 39.616 117.264 46.241 C 108.818 52.865 101.631 58.776 94.838 65.278 C 88.044 71.78 81.644 78.873 77.266 83.725 C 72.888 88.576 70.533 91.187 66.481 97.11 C 62.429 103.034 56.68 112.271 50.686 124.361 C 44.692 136.451 38.454 151.394 34.871 162.008 C 31.287 172.623 30.357 178.91 29.402 185.373 C 28.446 191.836 27.465 198.474 27.571 208.348 C 27.678 218.22 28.872 231.328 32.745 244.763 C 33.409 247.069 34.153 249.384 34.955 251.679 C 36.607 256.409 37.569 261.312 39.543 265.62 C 40.844 268.498 41.696 270.53 42.386 271.922 C 44.289 276.068 43.92 275.562 47.462 281.174 C 51.003 286.785 57.557 291.382 61.782 293.097 C 66.006 294.813 70.536 295.418 75.232 295.418 C 79.927 295.418 84.788 294.814 88.961 293.165 C 93.133 291.516 96.618 288.822 98.36 287.476 C 100.102 286.13 100.624 276.724 97.606 276.825 C 96.796 276.852 94.93 277.259 94.548 278.433 C 94.155 279.647 93.153 280.656 92.131 281.659 C 91.193 282.58 90.811 282.81 89.534 283.549 C 89.019 283.847 88.41 284.063 87.798 284.24 C 86.882 284.505 85.918 284.645 85.131 284.692 C 79.937 285.002 76.527 284.914 72.631 283.853 C 70.202 283.191 68.871 282.676 67.181 281.84 C 66.503 281.505 65.941 281.213 65.367 280.868 C 64.887 280.58 64.427 280.231 63.913 279.815 C 62.702 278.835 60.637 276.894 59.697 275.723 C 58.676 274.451 57.428 272.852 56.4 271.047 C 54.659 267.99 52.77 264.991 51.525 261.773 C 50.281 258.556 49.449 255.702 48.36 251.147 C 47.271 246.593 46.226 241.126 46.015 234.107 C 45.805 227.088 46.428 218.517 48.904 206.844 C 48.975 206.507 49.048 206.167 49.123 205.824 C 51.63 194.318 55.882 179.994 61.805 166.438 C 67.904 152.478 75.776 139.332 85.651 126.574 C 95.527 113.816 107.406 101.446 118.615 91.67 L 118.615 91.67 L 118.615 91.67 Z " fill-rule="evenodd" fill="rgb(227,0,22)" vector-effect="non-scaling-stroke" stroke-width="1" stroke="rgb(227,0,22)" stroke-linejoin="miter" stroke-linecap="butt" stroke-miterlimit="4"/><path d=" M 293.407 468.275 C 293.457 468.262 293.511 468.248 293.569 468.233 C 293.511 468.248 293.457 468.262 293.407 468.275 Z  M 43.184 245.767 C 46.861 239.353 48.762 235.24 53.076 231.313 C 54.742 229.796 56.47 228.244 59.313 226.793 C 59.961 226.462 60.656 226.091 61.388 225.774 C 62.635 225.233 64.012 224.769 65.572 224.361 C 67.858 223.871 70.12 223.46 72.633 223.273 C 97.823 221.39 138.745 225.654 137.532 221.315 C 136.572 217.879 123.308 218.243 111.612 217.438 C 109.318 217.28 107.956 217.127 106.122 216.977 C 103.929 216.798 98.466 216.69 96.105 216.722 C 82.152 216.8 68.84 217.208 54.121 223.141 C 49.146 225.147 45.431 228.13 41.992 231.161 C 37.232 235.355 33.322 239.878 30.263 244.127 C 24.061 252.74 18.06 269.213 15.367 282.678 C 13.083 294.101 13.922 309.504 14.713 321.036 C 15.339 330.161 22.921 361.762 26.934 369.693 C 30.947 377.624 35.749 386.092 41.012 394.251 C 46.274 402.411 51.996 410.263 58.003 417.628 C 64.011 424.995 70.303 431.875 77.56 438.865 C 84.816 445.855 93.036 452.954 102.233 459.822 C 111.43 466.69 121.605 473.327 132.712 479.397 C 143.818 485.468 155.857 490.973 166.605 495.149 C 177.353 499.325 186.81 502.172 197.734 504.597 C 208.658 507.023 221.05 509.026 233.832 510.096 C 246.614 511.167 259.787 511.304 270.962 510.821 C 282.137 510.338 291.315 509.235 299.71 507.833 C 308.105 506.432 315.717 504.732 323.567 502.559 C 331.416 500.387 339.503 497.743 347.724 494.554 C 355.945 491.365 364.301 487.632 372.684 483.294 C 381.068 478.955 389.479 474.011 397.094 469.01 C 404.71 464.01 411.529 458.953 418.766 452.869 C 426.003 446.785 433.658 439.675 441.015 431.906 C 448.372 424.138 455.43 415.711 461.298 407.956 C 467.167 400.201 471.844 393.116 476.589 384.857 C 481.334 376.597 486.146 367.162 490.074 358.375 C 494.003 349.589 497.048 341.45 500.027 331.212 C 503.006 320.973 505.919 308.636 507.859 297.705 C 509.799 286.774 510.765 277.249 511.063 266.059 C 511.361 254.868 510.99 242.012 510.13 231.258 C 509.27 220.503 507.92 211.851 505.653 201.889 C 503.386 191.927 500.202 180.657 497.826 171.831 C 497.766 171.604 497.705 171.379 497.645 171.155 Q 495.369 162.676 490.074 149.352 Q 482.121 134.447 477.163 126.865 C 476.998 126.612 476.833 126.36 476.668 126.108 C 471.554 118.294 466.592 110.825 461.195 103.573 C 455.797 96.32 449.964 89.283 443.883 82.673 C 437.802 76.062 431.473 69.877 424.469 63.772 C 417.466 57.667 409.787 51.64 402.551 46.491 C 395.315 41.341 388.522 37.068 381.85 33.264 C 376.124 29.998 370.488 27.077 364.021 24.13 C 378.139 33.924 392.272 43.8 406.744 55.543 C 421.879 67.823 437.384 82.146 450.798 104.01 C 464.213 125.874 475.536 155.281 482.069 182.527 C 488.602 209.773 490.344 234.857 488.253 261.807 C 486.163 288.756 480.24 317.57 468.742 341.976 C 457.243 366.383 440.17 386.383 426.93 400.959 C 413.69 415.536 404.282 424.688 391.072 433.765 C 377.863 442.842 360.851 451.843 349.832 456.716 C 338.814 461.589 333.787 462.334 331.274 462.707 L 329.151 463.022 C 328.551 463.134 327.9 463.254 327.148 463.388 L 325.045 463.79 C 321.329 464.5 313.897 465.921 307.144 466.926 C 300.391 467.933 294.318 468.524 293.197 468.478 C 292.858 468.465 292.971 468.393 293.407 468.275 C 293.553 468.249 293.699 468.224 293.845 468.198 C 293.753 468.21 293.661 468.221 293.569 468.233 C 289.928 468.698 286.36 469.133 283.135 469.496 C 272.818 470.657 266.016 471.079 256.28 470.831 C 246.545 470.583 233.874 469.665 221.389 467.641 C 208.904 465.616 196.604 462.484 185.64 458.815 C 174.677 455.145 164.788 452.368 155.495 447.462 C 146.202 442.555 137.766 439.587 128.402 432.474 C 119.038 425.362 108.484 417.505 99.394 407.809 C 90.303 398.113 79.41 388.23 71.96 376.414 C 64.51 364.599 58.155 354.39 54.285 346.68 C 50.414 338.97 46.883 327.26 45.518 323.01 C 43.249 315.948 41.329 307.337 39.905 298.671 C 38.481 290.004 37.935 284.163 37.475 274.981 C 37.21 264.869 40.526 250.018 43.184 245.767 L 43.184 245.767 Z " fill-rule="evenodd" fill="rgb(0,82,158)" vector-effect="non-scaling-stroke" stroke-width="1" stroke="rgb(0,82,158)" stroke-linejoin="miter" stroke-linecap="butt" stroke-miterlimit="4"/><path d=" M 101.397 222.174 C 105.543 222.442 110.711 222.829 116.249 223.242 C 122.749 223.727 124.801 223.938 136.22 224.647 C 147.639 225.356 169.668 227.995 185.086 229.436 C 200.504 230.876 207.935 231.871 216.47 232.376 C 218.654 232.505 225.508 232.39 227.104 232.484 C 227.575 232.511 229.471 232.522 229.875 232.501 C 233.711 232.295 236.043 232.105 238.485 231.766 C 242.143 231.258 245.977 230.41 247.98 229.139 C 249.983 227.868 250.158 226.173 248.59 225.241 C 247.021 224.308 243.712 224.139 240.227 224.054 C 236.743 223.969 233.084 223.969 216.621 222.868 C 202.496 221.923 178.944 220.167 155.044 218.777 C 155.039 218.776 155.033 218.776 155.028 218.776 C 155.014 218.775 155 218.773 154.985 218.773 C 152.027 218.617 111.895 216.636 105.118 216.911 C 102.823 217.004 71.699 220.014 85.959 220.855 C 87.522 220.947 98.074 221.958 101.397 222.173 L 101.397 222.174 L 101.397 222.174 Z " fill-rule="evenodd" fill="rgb(0,82,158)" vector-effect="non-scaling-stroke" stroke-width="1" stroke="rgb(0,82,158)" stroke-linejoin="miter" stroke-linecap="butt" stroke-miterlimit="4"/><path d=" M 284.788 403.936 C 289.372 399.136 294.824 393.649 300.157 388.549 C 309.285 379.821 318.066 372.228 323.78 368.092 C 329.494 363.957 332.143 363.279 333.85 361.787 C 335.557 360.296 336.324 357.99 339.564 354.397 C 342.805 350.804 348.519 345.923 353.815 341.719 C 359.111 337.516 363.989 333.99 367.857 330.193 C 370.62 327.481 372.867 324.63 375.018 321.739 C 375.878 320.584 376.722 319.422 377.578 318.261 C 379.234 316.013 380.932 313.765 382.332 311.866 C 383.466 310.328 384.404 309.02 384.965 308.125 C 386.219 306.125 385.592 306.193 384.025 312.937 C 383.531 315.062 382.943 317.851 382.332 320.925 C 382.278 321.194 382.225 321.466 382.171 321.739 C 380.889 328.247 379.529 335.85 378.722 341.12 C 377.494 349.138 377.545 351.756 377.736 355.863 C 377.925 359.97 378.255 365.567 378.786 370.023 C 379.317 374.479 380.05 377.794 379.302 379.4 C 378.555 381.007 376.327 380.903 376.432 380.937 C 376.537 380.971 378.973 381.142 376.54 381.396 C 374.106 381.651 366.802 381.989 360.635 383.345 C 354.468 384.7 349.437 387.075 341.735 390.14 C 334.032 393.206 323.658 396.964 316.201 399.065 C 308.745 401.167 304.206 401.613 301.972 401.7 C 299.737 401.788 299.807 401.516 299.186 400.581 C 298.564 399.646 297.252 398.046 295.856 397.577 C 294.461 397.107 292.981 397.768 292.122 398.856 C 291.263 399.943 291.023 401.459 289.644 402.479 C 288.555 403.284 286.757 403.78 284.788 403.936 L 284.788 403.936 L 284.788 403.936 Z  M 413.58 185.254 C 410.399 181.499 407.611 177.296 404.824 173.016 C 403.105 170.377 401.386 167.708 399.977 165.532 C 397.024 168.505 394.88 170.577 390.458 172.612 C 389.274 173.158 388.217 173.612 387.24 173.988 C 387.539 174.425 387.847 174.884 388.163 175.365 C 390.108 178.326 392.318 182.09 388.031 187.498 C 383.783 192.856 373.158 199.827 360.16 205.824 C 360.04 205.88 359.919 205.936 359.798 205.991 C 346.636 212.025 331.096 217.042 316.81 219.966 C 302.524 222.889 289.493 223.72 271.409 224.169 C 263.53 224.364 254.691 224.488 247.312 224.727 C 247.812 224.866 248.243 225.035 248.59 225.241 C 250.158 226.173 249.275 228.318 247.98 229.139 C 246.685 229.961 217.319 232.075 216.47 232.376 C 226.02 233.142 262.1 234.173 277.663 233.679 C 293.226 233.185 312.141 230.38 329.229 225.348 C 346.317 220.316 365.789 213.233 377.148 209.868 C 379.101 209.29 380.815 208.821 382.332 208.456 C 389.635 206.698 392.379 207.337 395.396 209.645 C 399.04 212.432 403.082 217.652 406.287 223.448 C 409.493 229.244 411.863 235.617 410.644 241.413 C 409.425 247.209 404.616 252.43 400.644 255.853 C 396.672 259.277 393.536 260.904 389.529 262.769 C 387.269 263.82 384.733 264.947 382.332 266.252 C 380.475 267.262 378.699 268.379 377.195 269.65 C 373.745 272.565 371.724 276.294 370.504 279.277 C 369.285 282.26 368.867 284.497 367.613 286.532 C 366.358 288.565 364.268 290.396 360.923 294.973 C 357.578 299.549 352.979 306.871 348.955 313.211 C 347.054 316.205 345.281 318.98 343.583 321.739 C 341.687 324.821 339.884 327.884 338.101 331.21 C 334.721 337.516 331.411 344.77 325.784 350.77 C 320.156 356.77 312.212 361.516 307.2 364.426 C 302.188 367.335 300.109 368.409 297.077 372.036 C 294.046 375.663 290.063 381.844 287.304 386.968 C 284.546 392.092 283.013 396.16 280.156 399.906 C 279.35 400.963 278.437 401.995 277.476 402.957 C 279.187 403.597 281.199 403.961 283.186 403.988 C 283.725 403.994 284.263 403.977 284.788 403.936 C 282.025 406.828 279.578 409.471 277.662 411.629 C 278.774 412.098 280.07 412.435 281.696 412.559 C 284.798 412.795 289.101 412.255 291.182 412.053 C 293.264 411.851 293.124 411.986 297.444 410.682 C 301.763 409.377 310.542 406.633 322.667 404.328 C 334.793 402.023 350.265 400.157 361.276 398.411 C 372.288 396.664 378.839 395.037 383.299 393.884 C 387.759 392.732 390.128 392.054 391.428 390.811 C 392.729 389.568 392.962 387.76 393.937 382.879 C 394.913 377.998 396.632 370.043 398.606 361.997 C 400.581 353.952 402.811 345.817 404.935 337.055 C 407.06 328.293 409.079 318.904 410.576 308.786 C 412.074 298.668 413.05 287.821 413.607 282.431 C 414.164 277.041 414.303 277.109 415.906 275.143 C 417.509 273.177 420.576 269.177 422.911 265.227 C 425.246 261.277 426.851 257.377 428.07 252.699 C 429.289 248.021 430.124 242.564 430.516 236.717 C 430.909 230.871 430.86 224.635 431.003 221.449 C 431.145 218.263 431.48 218.127 432.246 216.873 C 433.013 215.618 434.212 213.246 434.741 211.314 C 435.271 209.382 435.132 207.891 434.464 206.274 C 433.796 204.658 432.6 202.917 430.753 201.12 C 428.907 199.324 426.409 197.471 423.373 194.893 C 420.337 192.314 416.762 189.008 413.58 185.254 L 413.58 185.254 L 413.58 185.254 Z " fill-rule="evenodd" fill="rgb(0,82,158)"/><path d=" M 274.975 410.091 C 273.833 409.281 272.772 408.379 271.836 407.393 C 271.233 407.736 270.654 408.016 270.113 408.223 C 267.109 409.369 265.282 408.239 263.479 408.443 C 261.676 408.646 259.896 410.183 259.302 411.494 C 258.708 412.804 259.301 413.889 258.778 415.745 C 258.255 417.601 256.617 420.228 254.537 421.62 C 252.456 423.012 249.934 423.168 247.669 422.862 C 245.404 422.557 243.397 421.791 242.007 421.705 C 240.616 421.62 239.841 422.215 239.49 422.766 C 239.139 423.317 239.214 423.824 239.523 424.331 C 239.832 424.838 240.376 425.346 241.31 426.036 C 242.243 426.726 243.565 427.598 245.74 428.203 C 247.915 428.809 250.944 429.15 254.03 428.905 C 257.115 428.66 260.257 427.83 263.135 426.427 C 266.013 425.024 268.628 423.048 270.075 421.381 C 271.522 419.715 271.8 418.359 276.677 412.749 C 276.987 412.393 277.316 412.019 277.662 411.629 C 276.651 411.204 275.792 410.671 274.975 410.091 L 274.975 410.091 L 274.975 410.091 Z " fill-rule="evenodd" fill="rgb(0,82,158)"/><path d=" M 271.836 407.393 C 272.772 408.379 273.833 409.281 274.975 410.091 C 275.792 410.671 276.651 411.204 277.662 411.629 C 279.578 409.471 282.025 406.828 284.788 403.936 C 284.263 403.977 283.725 403.995 283.186 403.988 C 281.199 403.961 279.187 403.597 277.476 402.957 C 275.645 404.789 273.636 406.369 271.836 407.393 L 271.836 407.393 L 271.836 407.393 Z " fill-rule="evenodd" fill="rgb(0,82,158)" vector-effect="non-scaling-stroke" stroke-width="1" stroke="rgb(0,82,158)" stroke-linejoin="miter" stroke-linecap="butt" stroke-miterlimit="4"/><path d=" M 271.836 407.393 C 273.636 406.369 275.645 404.789 277.476 402.957 C 276.983 402.772 276.514 402.564 276.079 402.335 C 274.133 401.31 272.841 399.854 272.109 398.668 C 271.376 397.483 271.202 396.568 270.607 396.265 C 270.012 395.963 268.995 396.274 268.42 397.105 C 267.845 397.935 267.711 399.285 268.08 400.858 C 268.449 402.431 269.32 404.228 270.522 405.838 C 270.925 406.378 271.365 406.896 271.836 407.393 L 271.836 407.393 L 271.836 407.393 Z " fill-rule="evenodd" fill="rgb(0,82,158)" vector-effect="non-scaling-stroke" stroke-width="1" stroke="rgb(0,82,158)" stroke-linejoin="miter" stroke-linecap="butt" stroke-miterlimit="4"/><path d=" M 354.709 179.347 C 359.415 179.347 363.364 176.196 364.449 171.944 C 363.665 171.368 362.934 170.721 362.282 170.001 C 359.904 167.377 357.908 163.925 357.278 160.144 C 356.458 159.934 355.597 159.821 354.709 159.821 C 349.167 159.821 344.675 164.192 344.675 169.584 C 344.675 174.976 349.167 179.347 354.709 179.347 Z " fill-rule="evenodd" fill="rgb(0,82,158)" vector-effect="non-scaling-stroke" stroke-width="1" stroke="rgb(0,82,158)" stroke-linejoin="miter" stroke-linecap="butt" stroke-miterlimit="4"/><path d=" M 357.278 160.144 C 357.908 163.925 359.904 167.377 362.282 170.001 C 362.934 170.721 363.665 171.368 364.449 171.944 C 364.642 171.188 364.744 170.398 364.744 169.584 C 364.744 165.056 361.576 161.248 357.278 160.144 Z " fill-rule="evenodd" fill="rgb(0,82,158)" vector-effect="non-scaling-stroke" stroke-width="1" stroke="rgb(0,82,158)" stroke-linejoin="miter" stroke-linecap="butt" stroke-miterlimit="4"/><path d=" M 399.977 165.532 L 399.962 165.508 C 399.967 165.517 399.972 165.524 399.977 165.532 Z  M 387.241 173.989 C 388.217 173.612 389.275 173.158 390.458 172.612 C 394.88 170.577 397.024 168.505 399.977 165.532 C 400.76 164.744 401.599 163.893 402.553 162.963 C 405.683 159.909 403.677 157.895 401.389 153.544 C 400.36 151.586 399.793 149.913 393.885 144.293 C 391.028 141.576 387.388 138.001 381.81 136.651 C 381.188 136.501 374.585 135.544 369.936 138.828 C 365.998 141.609 360.102 146.027 357.753 153.324 C 357.006 155.643 356.912 157.949 357.278 160.144 C 361.576 161.248 364.744 165.056 364.744 169.584 C 364.744 170.398 364.642 171.188 364.449 171.944 C 367.646 174.291 371.738 175.466 375.036 175.595 C 380.173 175.795 382.92 175.65 387.241 173.989 L 387.241 173.989 L 387.241 173.989 Z " fill-rule="evenodd" fill="rgb(0,82,158)" vector-effect="non-scaling-stroke" stroke-width="1" stroke="rgb(0,82,158)" stroke-linejoin="miter" stroke-linecap="butt" stroke-miterlimit="4"/><path d=" M 372.662 137.411 C 376.82 135.87 381.303 136.529 381.81 136.651 C 381.947 136.684 382.083 136.719 382.218 136.755 C 376.111 127.907 371.116 122.695 365.585 117.583 C 359.283 111.759 352.284 106.066 343.685 100.993 C 335.087 95.919 324.889 91.465 317.487 87.967 C 310.085 84.469 305.48 81.925 301.856 80.552 C 298.232 79.18 295.59 78.977 293.05 79.164 C 290.509 79.351 288.07 79.927 285.405 80.318 C 282.74 80.707 279.848 80.911 278.735 81.449 C 277.623 81.988 278.289 82.862 280.013 83.404 C 281.737 83.946 284.519 84.157 287.844 84.364 C 291.169 84.571 295.038 84.775 298.104 85.114 C 301.17 85.453 303.434 85.927 305.385 86.555 C 307.336 87.182 308.975 87.961 312.032 89.368 C 315.089 90.775 319.564 92.809 325.792 96.611 C 332.02 100.413 340.001 105.983 347.606 112 C 355.211 118.017 362.44 124.481 369.634 133.478 C 370.646 134.743 371.656 136.058 372.662 137.411 L 372.662 137.411 L 372.662 137.411 Z " fill-rule="evenodd" fill="rgb(0,82,158)" vector-effect="non-scaling-stroke" stroke-width="1" stroke="rgb(0,82,158)" stroke-linejoin="miter" stroke-linecap="butt" stroke-miterlimit="4"/></g></g></g></g></svg>