<?xml version="1.0"?>
<svg xmlns="http://www.w3.org/2000/svg" xmlns:xlink="http://www.w3.org/1999/xlink" version="1.1" id="Capa_1" x="0px" y="0px" viewBox="0 0 58 58" style="enable-background:new 0 0 58 58;" xml:space="preserve" width="512px" height="512px" class=""><g><g>
	<g>
		<polygon style="fill:#EFEBDE;" points="45.5,14 31.5,0 0.5,0 0.5,58 45.5,58   " data-original="#EFEBDE"/>
		<g>
			<path style="fill:#D5D0BB;" d="M10.5,23h25c0.552,0,1-0.447,1-1s-0.448-1-1-1h-25c-0.552,0-1,0.447-1,1S9.948,23,10.5,23z" data-original="#D5D0BB"/>
			<path style="fill:#D5D0BB;" d="M10.5,15h10c0.552,0,1-0.447,1-1s-0.448-1-1-1h-10c-0.552,0-1,0.447-1,1S9.948,15,10.5,15z" data-original="#D5D0BB"/>
			<path style="fill:#D5D0BB;" d="M35.5,29h-25c-0.552,0-1,0.447-1,1s0.448,1,1,1h25c0.552,0,1-0.447,1-1S36.052,29,35.5,29z" data-original="#D5D0BB"/>
			<path style="fill:#D5D0BB;" d="M35.5,37h-25c-0.552,0-1,0.447-1,1s0.448,1,1,1h25c0.552,0,1-0.447,1-1S36.052,37,35.5,37z" data-original="#D5D0BB"/>
			<path style="fill:#D5D0BB;" d="M35.5,45h-25c-0.552,0-1,0.447-1,1s0.448,1,1,1h25c0.552,0,1-0.447,1-1S36.052,45,35.5,45z" data-original="#D5D0BB"/>
		</g>
		<polygon style="fill:#D5D0BB;" points="31.5,0 31.5,14 45.5,14   " data-original="#D5D0BB"/>
	</g>
	<g>
		<path d="M45.5,39.2c0.969-2.183,3.109-4.2,5.684-4.2c3.467,0,5.964,2.821,6.278,6.183    c0,0,0.17,0.835-0.203,2.337c-0.508,2.046-1.701,3.864-3.311,5.251L45.5,56l-8.447-7.229c-1.61-1.387-2.803-3.205-3.311-5.251    c-0.373-1.502-0.203-2.337-0.203-2.337C33.852,37.821,36.349,35,39.816,35C42.391,35,44.531,37.017,45.5,39.2z" data-original="#F09372" class="active-path" data-old_color="##3385F" style="fill:#3385FF"/>
	</g>
</g></g> </svg>
