<?xml version="1.0"?>
<svg xmlns="http://www.w3.org/2000/svg" xmlns:xlink="http://www.w3.org/1999/xlink" version="1.1" id="Capa_1" x="0px" y="0px" viewBox="0 0 512 512" style="enable-background:new 0 0 512 512;" xml:space="preserve" width="512px" height="512px" class=""><g><circle cx="256" cy="256" r="256" data-original="#FF3501" class="" data-old_color="##3385F" style="fill:#3385FF"/><path d="M307.831,104.553c-23.186-23.327-55.299-37.77-90.788-37.77c-70.693,0-128,57.307-128,128  c0,35.488,14.443,67.602,37.769,90.787L256,414.757v19.33l69.009,68.452v0.051c92.738-25.898,164.233-102.706,182.462-198.399  L307.831,104.553z" data-original="#C70024" class="" data-old_color="#267CFB" style="fill:#1669E5"/><circle style="fill:#ACABB1;" cx="217.043" cy="194.783" r="128" data-original="#ACABB1"/><path style="fill:#898890;" d="M217.043,66.783v256c70.693,0,128-57.307,128-128S287.736,66.783,217.043,66.783z" data-original="#898890" class=""/><circle style="fill:#FFFFFF;" cx="217.043" cy="194.783" r="110.347" data-original="#FFFFFF" class=""/><path style="fill:#D8D7DA;" d="M217.043,84.438v220.69c60.941,0,110.345-49.404,110.345-110.345S277.985,84.438,217.043,84.438z" data-original="#D8D7DA"/><polygon points="285.776,144.605 267.049,125.879 211.387,181.541 159.664,181.541 159.664,208.024 222.064,208.024 " data-original="#000000" class=""/><rect x="256" y="222.609" style="fill:#FFFFFF;" width="155.826" height="211.478" data-original="#FFFFFF" class=""/><rect x="333.913" y="222.609" style="fill:#E1E3FA;" width="77.913" height="211.478" data-original="#E1E3FA" class=""/><g>
	<rect x="322.783" y="378.435" width="66.783" height="11.13" data-original="#C6C5CA" class="" style="fill:#C6C5CA"/>
	<circle cx="294.957" cy="384" r="16.696" data-original="#C6C5CA" class="" style="fill:#C6C5CA"/>
	<rect x="322.783" y="322.783" width="66.783" height="11.13" data-original="#C6C5CA" class="" style="fill:#C6C5CA"/>
</g><polygon points="289.556,345.043 274.69,331.886 281.613,324.064 288.387,330.059 303.599,311.652 311.652,318.307 " data-original="#000000" class=""/><rect x="322.783" y="267.13" width="66.783" height="11.13" data-original="#C6C5CA" class="" style="fill:#C6C5CA"/><polygon points="289.556,289.391 274.69,276.234 281.613,268.412 288.387,274.406 303.599,256 311.652,262.655 " data-original="#000000" class=""/></g> </svg>
