<?xml version="1.0" standalone="no"?><!-- Generator: Gravit.io --><svg xmlns="http://www.w3.org/2000/svg" xmlns:xlink="http://www.w3.org/1999/xlink" style="isolation:isolate" viewBox="0 0 198.308 353.881" width="198.308" height="353.881"><defs><clipPath id="_clipPath_nUoD8SEMRXisG2DjKw83oi7i6NSqHldV"><rect width="198.308" height="353.881"/></clipPath></defs><g clip-path="url(#_clipPath_nUoD8SEMRXisG2DjKw83oi7i6NSqHldV)"><g id="Старт"><path d=" M 132.679 61.723 C 137.327 58.439 143.93 59.396 144.553 59.547 C 150.13 60.897 153.77 64.471 156.626 67.188 C 162.535 72.808 163.102 74.481 164.132 76.439 C 166.42 80.791 168.425 82.804 165.295 85.858 C 160.743 90.3 158.794 92.932 153.201 95.508 C 146.784 98.462 144.077 98.736 137.779 98.49 C 133.672 98.33 128.331 96.547 125.024 92.897 C 121.266 88.748 118.463 82.533 120.496 76.22 C 122.845 68.923 128.741 64.505 132.679 61.723 L 132.679 61.723 Z " fill="rgb(255,255,255)" vector-effect="non-scaling-stroke" stroke-width="1" stroke="rgb(255,255,255)" stroke-linejoin="miter" stroke-linecap="butt" stroke-miterlimit="4"/><path d=" M 117.452 82.717 C 120.113 82.717 122.666 83.745 124.548 85.576 C 126.43 87.407 127.487 89.89 127.487 92.48 C 127.487 97.872 122.994 102.243 117.452 102.242 C 111.91 102.242 107.417 97.871 107.417 92.48 C 107.417 87.088 111.91 82.717 117.452 82.717 L 117.452 82.717 Z " fill="rgb(255,255,255)" vector-effect="non-scaling-stroke" stroke-width="1" stroke="rgb(255,255,255)" stroke-linejoin="miter" stroke-linecap="butt" stroke-miterlimit="4"/><path d=" M 47.531 326.831 C 52.115 322.031 57.567 316.544 62.9 311.444 C 72.027 302.716 80.808 295.123 86.523 290.987 C 92.237 286.852 94.885 286.174 96.592 284.682 C 98.3 283.191 99.067 280.886 102.307 277.292 C 105.547 273.699 111.262 268.818 116.558 264.615 C 121.854 260.411 126.732 256.885 130.599 253.089 C 133.363 250.376 135.61 247.525 137.761 244.634 C 138.62 243.479 139.465 242.318 140.32 241.156 C 141.977 238.908 143.675 236.66 145.075 234.761 C 146.208 233.224 147.146 231.915 147.707 231.02 C 148.961 229.02 148.335 229.088 146.767 235.832 C 146.273 237.958 145.686 240.746 145.075 243.82 C 145.021 244.089 144.967 244.361 144.914 244.634 C 143.632 251.142 142.272 258.745 141.465 264.015 C 140.237 272.034 140.288 274.651 140.478 278.758 C 140.668 282.866 140.997 288.463 141.528 292.918 C 142.059 297.375 142.792 300.69 142.045 302.296 C 141.298 303.902 139.07 303.798 139.175 303.832 C 139.28 303.866 141.716 304.037 139.282 304.292 C 136.849 304.546 129.545 304.884 123.377 306.24 C 117.21 307.596 112.179 309.97 104.477 313.036 C 96.775 316.101 86.401 319.859 78.944 321.961 C 71.488 324.062 66.949 324.508 64.714 324.595 C 62.48 324.683 62.55 324.412 61.928 323.476 C 61.307 322.541 59.994 320.942 58.599 320.472 C 57.203 320.003 55.724 320.663 54.865 321.751 C 54.005 322.839 53.766 324.354 52.387 325.374 C 51.298 326.179 49.499 326.675 47.531 326.831 L 47.531 326.831 Z  M 176.323 108.149 C 173.142 104.395 170.354 100.191 167.566 95.911 C 165.847 93.272 164.128 90.604 162.72 88.427 C 159.767 91.4 157.623 93.472 153.201 95.508 C 152.017 96.053 150.959 96.507 149.982 96.883 C 150.281 97.32 150.59 97.78 150.906 98.26 C 152.851 101.222 155.06 104.986 150.773 110.393 C 146.526 115.751 135.9 122.723 122.903 128.719 C 122.782 128.775 122.662 128.831 122.54 128.886 C 109.378 134.92 93.838 139.937 79.552 142.861 C 65.267 145.785 51.812 150.256 42.898 150.895 C 33.985 151.534 29.725 151.818 18.645 149.895 C 7.566 147.972 9.216 149.421 16.772 153.176 C 24.328 156.931 30.861 158.635 40.405 156.575 C 49.95 154.515 74.883 153.276 91.972 148.243 C 109.06 143.211 128.532 136.128 139.89 132.764 C 141.844 132.185 143.558 131.716 145.075 131.351 C 152.378 129.593 155.122 130.232 158.139 132.54 C 161.783 135.327 165.824 140.547 169.03 146.343 C 172.236 152.14 174.606 158.512 173.386 164.308 C 172.167 170.104 167.359 175.325 163.386 178.749 C 159.414 182.172 156.279 183.8 152.271 185.664 C 150.012 186.715 147.476 187.842 145.075 189.148 C 143.217 190.157 141.442 191.274 139.937 192.546 C 136.488 195.461 134.467 199.189 133.247 202.172 C 132.028 205.155 131.61 207.393 130.355 209.427 C 129.101 211.461 127.011 213.292 123.665 217.868 C 120.321 222.445 115.721 229.767 111.697 236.106 C 109.796 239.1 108.024 241.875 106.326 244.634 C 104.429 247.717 102.627 250.779 100.843 254.106 C 97.463 260.411 94.154 267.665 88.526 273.665 C 82.899 279.665 74.955 284.411 69.943 287.321 C 64.931 290.231 62.851 291.304 59.82 294.931 C 56.789 298.558 52.805 304.739 50.047 309.863 C 47.289 314.987 45.756 319.055 42.898 322.801 C 42.092 323.858 41.18 324.89 40.219 325.852 C 41.93 326.492 43.942 326.856 45.929 326.883 C 46.468 326.89 47.005 326.872 47.531 326.831 C 44.768 329.724 42.32 332.367 40.404 334.524 C 41.517 334.993 42.813 335.33 44.438 335.454 C 47.54 335.691 51.843 335.151 53.924 334.948 C 56.006 334.746 55.867 334.882 60.186 333.577 C 64.506 332.273 73.284 329.529 85.41 327.223 C 97.535 324.919 113.007 323.052 124.019 321.306 C 135.031 319.56 141.581 317.932 146.041 316.78 C 150.501 315.627 152.87 314.949 154.171 313.706 C 155.472 312.463 155.704 310.656 156.68 305.774 C 157.655 300.893 159.374 292.938 161.349 284.893 C 163.323 276.848 165.553 268.712 167.678 259.95 C 169.802 251.188 171.822 241.799 173.319 231.682 C 174.816 221.564 175.792 210.716 176.349 205.326 C 176.907 199.936 177.046 200.004 178.649 198.038 C 180.252 196.072 183.318 192.072 185.653 188.122 C 187.989 184.172 189.594 180.273 190.813 175.595 C 192.032 170.916 192.866 165.459 193.259 159.613 C 193.651 153.766 193.603 147.53 193.745 144.344 C 193.888 141.158 194.223 141.023 194.989 139.768 C 195.755 138.514 196.954 136.141 197.484 134.209 C 198.014 132.277 197.874 130.786 197.207 129.17 C 196.539 127.553 195.343 125.812 193.496 124.016 C 191.65 122.219 189.152 120.367 186.115 117.788 C 183.079 115.209 179.504 111.903 176.323 108.149 L 176.323 108.149 Z " fill-rule="evenodd" fill="rgb(255,255,255)" vector-effect="non-scaling-stroke" stroke-width="1" stroke="rgb(255,255,255)" stroke-linejoin="miter" stroke-linecap="butt" stroke-miterlimit="4"/><path d=" M 37.717 332.986 C 36.575 332.176 35.515 331.274 34.579 330.288 C 33.976 330.631 33.396 330.911 32.855 331.118 C 29.851 332.265 28.025 331.135 26.222 331.338 C 24.419 331.541 22.638 333.079 22.044 334.389 C 21.451 335.7 22.043 336.785 21.521 338.641 C 20.998 340.497 19.36 343.124 17.28 344.515 C 15.199 345.907 12.676 346.063 10.412 345.758 C 8.147 345.452 6.14 344.686 4.749 344.6 C 3.359 344.515 2.583 345.11 2.233 345.662 C 1.882 346.213 1.956 346.719 2.266 347.226 C 2.574 347.734 3.119 348.242 4.052 348.932 C 4.985 349.622 6.307 350.493 8.483 351.099 C 10.658 351.705 13.687 352.045 16.772 351.801 C 19.857 351.556 22.999 350.726 25.877 349.322 C 28.756 347.919 31.371 345.943 32.817 344.277 C 34.264 342.611 34.543 341.255 39.419 335.645 C 39.729 335.288 40.058 334.914 40.404 334.524 C 39.394 334.099 38.535 333.566 37.717 332.986 L 37.717 332.986 Z " fill-rule="evenodd" fill="rgb(255,255,255)" vector-effect="non-scaling-stroke" stroke-width="1" stroke="rgb(255,255,255)" stroke-linejoin="miter" stroke-linecap="butt" stroke-miterlimit="4"/><path d=" M 34.579 330.288 C 35.515 331.275 36.575 332.176 37.717 332.986 C 38.535 333.566 39.394 334.099 40.404 334.524 C 42.32 332.367 44.768 329.723 47.531 326.831 C 47.005 326.873 46.468 326.89 45.929 326.883 C 43.942 326.856 41.93 326.492 40.219 325.852 C 38.387 327.684 36.378 329.264 34.579 330.288 L 34.579 330.288 Z " fill-rule="evenodd" fill="rgb(255,255,255)" vector-effect="non-scaling-stroke" stroke-width="1" stroke="rgb(255,255,255)" stroke-linejoin="miter" stroke-linecap="butt" stroke-miterlimit="4"/><path d=" M 34.579 330.288 C 36.378 329.264 38.387 327.684 40.219 325.852 C 39.725 325.667 39.257 325.46 38.821 325.23 C 36.875 324.206 35.584 322.749 34.851 321.563 C 34.119 320.378 33.945 319.463 33.349 319.161 C 32.754 318.859 31.738 319.169 31.163 320 C 30.588 320.83 30.454 322.18 30.823 323.754 C 31.192 325.327 32.063 327.124 33.265 328.734 C 33.668 329.273 34.107 329.791 34.579 330.288 L 34.579 330.288 Z " fill-rule="evenodd" fill="rgb(255,255,255)" vector-effect="non-scaling-stroke" stroke-width="1" stroke="rgb(255,255,255)" stroke-linejoin="miter" stroke-linecap="butt" stroke-miterlimit="4"/><path d=" M 127.192 94.839 C 130.388 97.186 134.481 98.361 137.779 98.49 C 142.915 98.691 145.663 98.546 149.983 96.884 C 148.438 94.627 147.141 92.961 146.41 92.039 C 145.538 90.939 145.473 90.898 146.366 91.134 C 147.26 91.37 149.11 91.883 151.34 90.527 C 153.57 89.17 156.178 85.943 157.552 84.364 C 158.926 82.784 159.065 82.852 160.528 85.064 C 161.089 85.912 161.844 87.075 162.72 88.427 C 163.503 87.64 164.342 86.789 165.295 85.858 C 168.426 82.804 166.42 80.791 164.132 76.439 C 163.102 74.481 162.535 72.808 156.627 67.188 C 153.77 64.471 150.131 60.897 144.553 59.546 C 143.93 59.396 137.328 58.439 132.679 61.723 C 128.741 64.504 122.845 68.923 120.496 76.219 C 119.749 78.538 119.655 80.845 120.02 83.04 C 124.318 84.143 127.487 87.951 127.487 92.479 C 127.487 93.293 127.385 94.084 127.192 94.839 L 127.192 94.839 Z " fill-rule="evenodd" fill="rgb(255,255,255)" vector-effect="non-scaling-stroke" stroke-width="1" stroke="rgb(255,255,255)" stroke-linejoin="miter" stroke-linecap="butt" stroke-miterlimit="4"/><path d=" M 117.452 102.242 C 122.158 102.242 126.107 99.091 127.192 94.839 C 126.407 94.263 125.676 93.616 125.024 92.897 C 122.646 90.272 120.651 86.82 120.02 83.04 C 119.201 82.829 118.34 82.717 117.452 82.717 C 111.91 82.717 107.417 87.088 107.417 92.479 C 107.417 97.871 111.91 102.242 117.452 102.242 Z " fill-rule="evenodd" fill="rgb(255,255,255)" vector-effect="non-scaling-stroke" stroke-width="1" stroke="rgb(255,255,255)" stroke-linejoin="miter" stroke-linecap="butt" stroke-miterlimit="4"/><path d=" M 120.02 83.04 C 120.651 86.82 122.646 90.272 125.024 92.897 C 125.676 93.616 126.407 94.263 127.192 94.839 C 127.385 94.084 127.487 93.293 127.487 92.479 C 127.487 87.951 124.318 84.143 120.02 83.04 Z " fill-rule="evenodd" fill="rgb(255,255,255)" vector-effect="non-scaling-stroke" stroke-width="1" stroke="rgb(255,255,255)" stroke-linejoin="miter" stroke-linecap="butt" stroke-miterlimit="4"/><path d=" M 162.72 88.427 L 162.704 88.404 C 162.71 88.412 162.714 88.42 162.72 88.427 Z  M 149.983 96.884 C 150.96 96.507 152.017 96.053 153.201 95.508 C 157.623 93.472 159.767 91.4 162.72 88.427 C 163.503 87.64 164.342 86.789 165.295 85.858 C 168.426 82.804 166.42 80.791 164.132 76.439 C 163.102 74.481 162.535 72.808 156.627 67.188 C 153.77 64.471 150.131 60.897 144.553 59.546 C 143.93 59.396 137.328 58.439 132.679 61.723 C 128.741 64.504 122.845 68.923 120.496 76.219 C 119.749 78.538 119.655 80.845 120.02 83.04 C 124.318 84.143 127.487 87.951 127.487 92.479 C 127.487 93.293 127.385 94.083 127.192 94.839 C 130.388 97.186 134.481 98.361 137.779 98.49 C 142.915 98.691 145.663 98.546 149.983 96.884 L 149.983 96.884 Z " fill-rule="evenodd" fill="rgb(255,255,255)" vector-effect="non-scaling-stroke" stroke-width="1" stroke="rgb(255,255,255)" stroke-linejoin="miter" stroke-linecap="butt" stroke-miterlimit="4"/><path d=" M 135.404 60.306 C 139.562 58.765 144.045 59.424 144.553 59.546 C 144.69 59.58 144.825 59.614 144.961 59.65 C 138.853 50.802 133.859 45.59 128.328 40.479 C 122.026 34.655 115.027 28.962 106.428 23.888 C 97.83 18.815 87.631 14.361 80.23 10.863 C 72.828 7.364 68.223 4.82 64.599 3.448 C 60.975 2.075 58.333 1.872 55.792 2.059 C 53.252 2.246 50.813 2.823 48.148 3.213 C 45.482 3.603 42.59 3.806 41.478 4.345 C 40.365 4.883 41.032 5.757 42.756 6.299 C 44.479 6.841 47.261 7.052 50.586 7.26 C 53.911 7.467 57.78 7.67 60.847 8.009 C 63.913 8.348 66.176 8.823 68.127 9.45 C 70.079 10.077 71.718 10.857 74.774 12.263 C 77.831 13.67 82.307 15.704 88.534 19.506 C 94.763 23.308 102.744 28.879 110.348 34.896 C 117.953 40.913 125.183 47.376 132.377 56.374 C 133.388 57.638 134.399 58.953 135.404 60.306 L 135.404 60.306 Z " fill-rule="evenodd" fill="rgb(255,255,255)" vector-effect="non-scaling-stroke" stroke-width="1" stroke="rgb(255,255,255)" stroke-linejoin="miter" stroke-linecap="butt" stroke-miterlimit="4"/></g></g></svg>